{
  "asset": {
    "generator": "OpenSceneGraph 3.3.8",
    "version": "2.0"
  },
  "accessors": [
    {
      "type": "VEC3",
      "componentType": 5126,
      "count": 9192,
      "max": [
        8.039085388183594,
        2.365078926086426,
        7.246175765991211
      ],
      "min": [
        -4.386030197143555,
        -10.652299880981445,
        -4.612299919128418
      ],
      "bufferView": 0,
      "byteOffset": 0
    },
    {
      "type": "VEC3",
      "componentType": 5126,
      "count": 9192,
      "bufferView": 0,
      "byteOffset": 12
    },
    {
      "type": "VEC4",
      "componentType": 5126,
      "count": 9192,
      "bufferView": 0,
      "byteOffset": 24
    },
    {
      "type": "VEC2",
      "componentType": 5126,
      "count": 9192,
      "bufferView": 0,
      "byteOffset": 40
    },
    {
      "type": "SCALAR",
      "componentType": 5123,
      "count": 38901,
      "bufferView": 1,
      "byteOffset": 0
    },
    {
      "type": "SCALAR",
      "componentType": 5123,
      "count": 954,
      "bufferView": 1,
      "byteOffset": 77804
    },
    {
      "type": "VEC3",
      "componentType": 5126,
      "count": 9192,
      "max": [
        8.039085388183594,
        2.365078926086426,
        7.246175765991211
      ],
      "min": [
        -4.386030197143555,
        -10.652299880981445,
        -4.612299919128418
      ],
      "bufferView": 2,
      "byteOffset": 0
    },
    {
      "type": "VEC3",
      "componentType": 5126,
      "count": 9192,
      "bufferView": 2,
      "byteOffset": 12
    },
    {
      "type": "VEC4",
      "componentType": 5126,
      "count": 9192,
      "bufferView": 2,
      "byteOffset": 24
    },
    {
      "type": "VEC2",
      "componentType": 5126,
      "count": 9192,
      "bufferView": 2,
      "byteOffset": 40
    }
  ],
  "bufferViews": [
    {
      "buffer": 0,
      "byteOffset": 0,
      "byteLength": 441216,
      "byteStride": 48,
      "target": 34962
    },
    {
      "buffer": 0,
      "byteOffset": 441216,
      "byteLength": 79712,
      "target": 34963
    },
    {
      "buffer": 0,
      "byteOffset": 520928,
      "byteLength": 441216,
      "byteStride": 48,
      "target": 34962
    }
  ],
  "samplers": [
    {
      "wrapS": 10497,
      "wrapT": 10497
    }
  ],
  "textures": [
    {
      "source": 0,
      "sampler": 0
    },
    {
      "source": 2,
      "sampler": 0
    },
    {
      "source": 1,
      "sampler": 0
    }
  ],
  "images": [
    {
      "name": "teste_01.png",
      "mimeType": "image/png",
      "uri": "images/teste_01.png"
    },
    {
      "name": "teste_02.png",
      "mimeType": "image/png",
      "uri": "images/teste_02.png"
    },
    {
      "name": "emissive2.png",
      "mimeType": "image/png",
      "uri": "images/emissive2.png"
    }
  ],
  "buffers": [
    {
      "uri": "Sad_Office_Room.bin",
      "byteLength": 962144
    }
  ],
  "materials": [
    {
      "name": "Room_mat",
      "extras": {
        "SKETCHFAB_reflection": 0.3
      },
      "pbrMetallicRoughness": {
        "roughnessFactor": 0.84,
        "metallicFactor": 0.16,
        "baseColorTexture": {
          "index": 0
        },
        "metallicRoughnessTexture": {
          "index": 0
        }
      },
      "emissiveFactor": [
        1,
        1,
        1
      ],
      "emissiveTexture": {
        "index": 1
      },
      "normalTexture": {
        "index": 2
      },
      "extensions": {
        "KHR_materials_specular": {
          "specularColorFactor": [
            0.25,
            0.25,
            0.25
          ],
          "specularTexture": {
            "index": 0
          }
        }
      }
    }
  ],
  "meshes": [
    {
      "name": "old_pc.000_Room_mat_0_0",
      "primitives": [
        {
          "attributes": {
            "POSITION": 0,
            "NORMAL": 1,
            "TANGENT": 2,
            "TEXCOORD_0": 3
          },
          "mode": 4,
          "material": 0,
          "indices": 4
        }
      ]
    },
    {
      "name": "old_pc.000_Room_mat_0_1",
      "primitives": [
        {
          "attributes": {
            "POSITION": 6,
            "NORMAL": 7,
            "TANGENT": 8,
            "TEXCOORD_0": 9
          },
          "mode": 4,
          "material": 0,
          "indices": 5
        }
      ]
    }
  ],
  "nodes": [
    {
      "name": "e5f33534f433454083ffbbaa1eb7177b.fbx",
      "rotation": [
        0.7071067811865475,
        0,
        0,
        0.7071067811865476
      ],
      "children": [
        1
      ]
    },
    {
      "name": "RootNode",
      "children": [
        2
      ]
    },
    {
      "name": "old_pc.000",
      "translation": [
        -2.495310068130493,
        4.612370014190674,
        -4.26731014251709
      ],
      "rotation": [
        -0.7071068387878163,
        0,
        0,
        0.707106723585274
      ],
      "children": [
        3
      ]
    },
    {
      "name": "old_pc.000",
      "children": [
        4
      ]
    },
    {
      "name": "old_pc.000_Room_mat_0",
      "children": [
        5,
        6
      ]
    },
    {
      "name": "old_pc.000_Room_mat_0_0",
      "extras": {
        "userData": {
          "attributes": 51,
          "bits": 16,
          "vertex_mode": 3,
          "epsilon": 0.25,
          "nphi": 720,
          "triangle_mode": 7,
          "vtx_bbl_x": -4.38603,
          "vtx_bbl_y": -10.6523,
          "vtx_bbl_z": -4.6123,
          "vtx_h_x": 0.000379196,
          "vtx_h_y": 0.000397271,
          "vtx_h_z": 0.000361903
        }
      },
      "mesh": 0
    },
    {
      "name": "old_pc.000_Room_mat_0_1",
      "extras": {
        "userData": {
          "attributes": 51,
          "bits": 16,
          "vertex_mode": 3,
          "epsilon": 0.25,
          "nphi": 720,
          "triangle_mode": 7,
          "vtx_bbl_x": -4.38603,
          "vtx_bbl_y": -10.6523,
          "vtx_bbl_z": -4.6123,
          "vtx_h_x": 0.000379196,
          "vtx_h_y": 0.000397271,
          "vtx_h_z": 0.000361903
        }
      },
      "mesh": 1
    },
    {
      "name": "Sketchfab_model",
      "translation": [
        0.29913651943206787,
        -5.067478179931641,
        -23.900909423828125
      ],
      "rotation": [
        -0.5864403998882253,
        -0.3296222730812266,
        -0.36252998900710365,
        0.6449874555331219
      ],
      "children": [
        0
      ]
    }
  ],
  "scenes": [
    {
      "name": "Scene",
      "nodes": [
        7
      ]
    }
  ],
  "extensionsUsed": [
    "KHR_materials_specular"
  ]
}